<svg width="600" height="200" viewBox="0 0 600 200" fill="none" xmlns="http://www.w3.org/2000/svg">
<rect width="600" height="200" fill="white"/>
<path d="M487.823 134.344C478.783 134.344 471.743 132.184 466.703 127.864C461.663 123.464 459.143 116.744 459.143 107.704V90.6243H450V71.1243H452.643C458 71.1243 460.143 69.1243 460.143 63.6243V53.7443L486.263 51.7443V71.1243H499.5V90.6243H486.263V107.464C486.263 109.464 486.783 111.024 487.823 112.144C488.943 113.264 490.303 113.824 491.903 113.824C494.223 113.824 496.263 113.224 498.023 112.024L504.503 130.864C502.423 132.064 499.903 132.944 496.943 133.504C494.063 134.064 491.023 134.344 487.823 134.344Z" fill="#EA701D"/>
<circle cx="201" cy="100.624" r="10" fill="black"/>
<circle cx="288" cy="100.624" r="10" fill="black"/>
<path d="M417.485 66.3043C422.525 66.3043 427.085 67.3443 431.165 69.4243C435.245 71.4243 438.445 74.5843 440.765 78.9043C443.165 83.2243 444.365 88.8243 444.365 95.7043V133.144H417.245V100.384C417.245 96.3043 416.525 93.4243 415.085 91.7443C413.645 89.9843 411.685 89.1043 409.205 89.1043C407.365 89.1043 405.645 89.5443 404.045 90.4243C402.525 91.2243 401.285 92.5843 400.325 94.5043C399.445 96.4243 399.005 99.0243 399.005 102.304V133.144H371.885V67.5043H397.685V86.7043L392.525 81.1843C395.085 76.2243 398.525 72.5043 402.845 70.0243C407.245 67.5443 412.125 66.3043 417.485 66.3043Z" fill="#EA701D"/>
<path d="M334.744 133.144V67.5043H361.864V133.144H334.744Z" fill="#EA701D"/>
<path d="M265.155 131.224C269.395 133.304 274.115 134.344 279.315 134.344C284.275 134.344 288.875 133.144 293.115 130.744C294.882 129.73 296.482 128.494 297.915 127.038V133.144H323.715V103.624H251.715C251.715 109.631 252.481 115.879 255.315 121.264C257.715 125.744 260.995 129.064 265.155 131.224Z" fill="#EA701D"/>
<path d="M251.715 97.6243V67.5043H323.715V97.6243H251.715Z" fill="#EA701D"/>
<path d="M125.76 134.344C120.16 134.344 114.64 133.744 109.2 132.544C103.76 131.344 99.36 129.784 96 127.864L103.44 109.984C106.56 111.824 110.16 113.264 114.24 114.304C118.4 115.344 122.44 115.864 126.36 115.864C129.64 115.864 131.84 115.584 132.96 115.024C134.16 114.464 134.76 113.704 134.76 112.744C134.76 111.784 134.08 111.104 132.72 110.704C131.36 110.224 129.56 109.864 127.32 109.624C125.08 109.384 122.6 109.104 119.88 108.784C117.24 108.384 114.56 107.824 111.84 107.104C109.12 106.384 106.64 105.304 104.4 103.864C102.16 102.424 100.36 100.504 99 98.1043C97.64 95.6243 96.96 92.5043 96.96 88.7443C96.96 84.5843 98.2 80.8243 100.68 77.4643C103.24 74.1043 107 71.4243 111.96 69.4243C117 67.3443 123.2 66.3043 130.56 66.3043C135.36 66.3043 140.16 66.7443 144.96 67.6243C149.76 68.5043 153.88 69.8643 157.32 71.7043L149.88 89.5843C146.52 87.7443 143.2 86.5043 139.92 85.8643C136.72 85.1443 133.72 84.7843 130.92 84.7843C127.48 84.7843 125.12 85.1043 123.84 85.7443C122.64 86.3843 122.04 87.1043 122.04 87.9043C122.04 88.8643 122.72 89.5843 124.08 90.0643C125.44 90.5443 127.24 90.9043 129.48 91.1443C131.72 91.3843 134.16 91.7043 136.8 92.1043C139.52 92.4243 142.2 92.9843 144.84 93.7843C147.56 94.5043 150.04 95.5843 152.28 97.0243C154.52 98.4643 156.32 100.424 157.68 102.904C159.04 105.304 159.72 108.384 159.72 112.144C159.72 116.064 158.48 119.744 156 123.184C153.52 126.544 149.76 129.264 144.72 131.344C139.68 133.344 133.36 134.344 125.76 134.344Z" fill="#EA701D"/>
<path d="M337.313 61.1777C340.687 63.2636 344.816 63.8759 349.7 63.0146C354.585 62.1533 358.255 60.1657 360.712 57.0518C363.155 53.8591 364.015 50.2144 363.293 46.1176C362.612 42.2572 360.599 39.3628 357.253 37.4345C353.907 35.5061 349.792 34.9726 344.908 35.8339C340.023 36.6952 336.352 38.6828 333.896 41.7967C331.439 44.9106 330.551 48.3977 331.232 52.2582C331.912 56.1186 333.94 59.0918 337.313 61.1777Z" fill="#EA701D"/>
<path d="M181.291 130.264C186.171 132.984 191.451 134.344 197.131 134.344C202.891 134.344 207.611 133.144 211.291 130.744C212.189 130.14 213.029 129.462 213.811 128.71V157.424L240.931 155.424V103.624H165.558C165.938 109.307 167.343 114.307 169.771 118.624C172.651 123.664 176.491 127.544 181.291 130.264Z" fill="#EA701D"/>
<path d="M165.528 97.6243C165.861 91.753 167.275 86.633 169.772 82.2643C172.652 77.1443 176.492 73.2243 181.292 70.5043C186.172 67.7043 191.452 66.3043 197.132 66.3043C203.212 66.3043 208.052 67.5043 211.652 69.9043C212.939 70.7438 214.099 71.7449 215.132 72.9074V67.5043H240.932V97.6243H165.528Z" fill="#EA701D"/>
</svg>
