<svg width="175" height="175" viewBox="0 0 175 175" fill="none" xmlns="http://www.w3.org/2000/svg">
<path d="M95.189 86.3199H167.189V92.3199H95.189V86.3199Z" fill="white"/>
<path d="M84.4003 92.3164H9.02587C8.95527 91.2612 8.91998 90.1825 8.91998 89.0803C8.91998 88.1412 8.9456 87.2199 8.99685 86.3164H84.4003V92.3164Z" fill="white"/>
<circle cx="44.4718" cy="89.3199" r="10" fill="black"/>
<circle cx="131.472" cy="89.3199" r="10" fill="black"/>
<path d="M108.627 119.92C112.867 122 117.587 123.04 122.787 123.04C127.747 123.04 132.347 121.84 136.587 119.44C138.354 118.425 139.954 117.19 141.387 115.733V121.84H167.187V92.3199H95.1868C95.1868 98.3263 95.9526 104.575 98.7868 109.96C101.187 114.44 104.467 117.76 108.627 119.92Z" fill="#EA701D"/>
<path d="M95.1868 86.3199V56.2H167.187V86.3199H95.1868Z" fill="#EA701D"/>
<path d="M24.7634 118.96C29.6434 121.68 34.9234 123.04 40.6034 123.04C46.3634 123.04 51.0834 121.84 54.7634 119.44C55.6604 118.835 56.5004 118.157 57.2834 117.405V146.12L84.4034 144.12V92.3199H9.02954C9.41024 98.0026 10.8149 103.003 13.2434 107.32C16.1234 112.36 19.9634 116.24 24.7634 118.96Z" fill="#EA701D"/>
<path d="M9 86.32C9.33252 80.4487 10.747 75.3287 13.2434 70.96C16.1234 65.84 19.9634 61.92 24.7634 59.2C29.6434 56.4 34.9234 55 40.6034 55C46.6834 55 51.5234 56.2 55.1234 58.6C56.4106 59.4395 57.5706 60.4405 58.6034 61.6031V56.2H84.4034V86.32H9Z" fill="#EA701D"/>
</svg>
